<?xml version="1.0" standalone="no"?>
<!DOCTYPE svg PUBLIC "-//W3C//DTD SVG 20010904//EN"
 "http://www.w3.org/TR/2001/REC-SVG-20010904/DTD/svg10.dtd">
<svg version="1.0" xmlns="http://www.w3.org/2000/svg"
 width="713.000000pt" height="713.000000pt" viewBox="0 0 713.000000 713.000000"
 preserveAspectRatio="xMidYMid meet">
<metadata>
Created by potrace 1.11, written by Peter Selinger 2001-2013
</metadata>
<g transform="translate(0.000000,713.000000) scale(0.100000,-0.100000)"
fill="#000000" stroke="none">
<path d="M2908 6356 c-96 -29 -165 -114 -174 -215 -5 -61 -5 -701 1 -710 3 -6
61 -7 85 -2 3 1 6 83 6 184 4 526 10 578 65 618 16 11 39 23 51 27 13 3 289 7
615 8 591 3 591 3 634 -19 52 -27 77 -59 84 -112 8 -55 13 -210 15 -477 2
-159 6 -228 14 -231 6 -2 27 -3 46 -3 l35 1 -2 325 c-3 470 -4 481 -75 545
-84 77 -5 69 -721 71 -450 1 -653 -2 -679 -10z"/>
<path d="M2065 5195 c-68 -35 -92 -54 -121 -98 -22 -34 -28 -55 -31 -117 -2
-41 -5 -903 -7 -1915 l-3 -1840 29 -49 c36 -60 43 -67 104 -105 l48 -31 1442
0 1443 0 48 25 c52 28 73 48 115 110 l27 40 -3 1916 -3 1916 -24 34 c-30 43
-55 68 -99 99 l-34 24 -913 2 c-502 1 -920 4 -928 8 -8 3 -15 2 -15 -2 0 -4
-33 -6 -72 -4 -87 3 -73 3 -181 0 -48 -2 -87 -1 -87 2 0 3 -24 4 -52 2 -70 -4
-60 -4 -174 -1 -56 1 -106 -1 -110 -4 -5 -2 -18 -1 -29 3 -11 4 -34 4 -52 -1
-18 -4 -33 -4 -33 0 0 3 -55 6 -122 6 -104 0 -129 -3 -163 -20z m2656 -88
c174 -4 222 -8 250 -21 53 -26 71 -59 78 -140 8 -97 7 -3530 0 -3633 -8 -94
-30 -133 -89 -155 -28 -10 -303 -13 -1415 -12 -759 0 -1398 3 -1420 6 -45 7
-104 63 -106 100 -1 13 -3 37 -5 53 -4 27 -15 1880 -13 2110 0 50 0 97 0 105
0 8 0 71 0 140 0 69 0 132 0 140 -3 102 0 263 4 271 4 5 3 9 -2 9 -6 0 -9 89
-4 103 1 1 2 180 4 397 l2 395 25 45 c47 83 58 86 382 89 155 1 283 3 284 4 4
4 1812 -2 2025 -6z"/>
<path d="M4194 3900 c-17 -11 -67 -64 -110 -117 -44 -53 -84 -101 -91 -108 -6
-7 -22 -28 -35 -46 -13 -19 -53 -70 -90 -114 -194 -231 -298 -361 -298 -372 0
-7 -7 -13 -15 -13 -8 0 -15 -6 -15 -14 0 -8 -3 -16 -7 -18 -9 -3 -159 -186
-183 -222 -8 -13 -29 -38 -47 -57 -17 -19 -51 -59 -75 -89 -24 -30 -51 -56
-60 -58 -11 -2 -53 42 -120 124 -56 69 -110 137 -118 149 -23 34 -204 247
-233 273 -23 22 -47 27 -104 23 -23 -1 -99 -71 -148 -136 -27 -36 -101 -122
-116 -135 -3 -3 -15 -26 -27 -51 -23 -47 -29 -110 -18 -163 8 -33 53 -102 99
-150 18 -18 39 -41 47 -52 8 -10 31 -39 50 -64 19 -25 38 -46 42 -48 5 -2 8
-10 8 -17 0 -7 3 -15 8 -17 8 -3 119 -136 196 -233 26 -33 63 -78 82 -100 19
-22 71 -87 117 -145 152 -195 165 -206 224 -209 36 -1 55 5 85 25 21 15 38 30
38 33 0 3 12 19 26 35 15 15 43 49 62 75 19 25 38 48 42 51 4 3 9 10 11 16 2
6 25 35 50 65 76 87 153 181 184 224 17 22 35 45 41 50 6 6 48 57 94 115 46
58 97 121 114 141 51 58 110 131 126 154 17 26 180 228 189 235 3 3 20 23 36
45 30 40 44 57 78 98 33 39 84 100 171 207 69 84 86 112 88 140 4 79 -3 135
-20 166 -20 37 -130 175 -149 187 -7 4 -19 22 -28 40 -19 41 -101 97 -140 97
-17 0 -44 -9 -61 -20z"/>
</g>
</svg>
