<?xml version="1.0" standalone="no"?>
<!DOCTYPE svg PUBLIC "-//W3C//DTD SVG 20010904//EN"
 "http://www.w3.org/TR/2001/REC-SVG-20010904/DTD/svg10.dtd">
<svg version="1.0" xmlns="http://www.w3.org/2000/svg"
 width="497.000000pt" height="535.000000pt" viewBox="0 0 497.000000 535.000000"
 preserveAspectRatio="xMidYMid meet">

<g transform="translate(0.000000,535.000000) scale(0.100000,-0.100000)"
fill="#000000" stroke="none">
<path d="M1962 4759 c-23 -12 -52 -35 -63 -51 -39 -55 -44 -100 -41 -375 l3
-263 34 0 34 0 3 273 c3 298 5 305 65 344 25 17 64 18 483 18 419 0 458 -1
483 -18 60 -39 62 -46 65 -344 l3 -273 35 0 35 0 -3 293 c-3 291 -3 294 -27
329 -13 19 -40 46 -59 59 l-36 24 -485 3 c-478 2 -487 2 -529 -19z"/>
<path d="M1342 3889 c-43 -22 -74 -56 -92 -104 -7 -19 -10 -478 -10 -1448 l0
-1421 25 -43 c15 -25 43 -53 69 -68 l43 -25 1078 0 1079 0 44 21 c29 15 54 37
73 68 l29 45 -2 1436 -3 1436 -24 36 c-13 19 -40 46 -59 59 l-36 24 -1085 3
-1086 2 -43 -21z m2201 -72 c15 -9 35 -29 44 -44 17 -26 18 -106 18 -1428 0
-1322 -1 -1402 -18 -1428 -9 -15 -29 -35 -44 -44 -25 -17 -91 -18 -1083 -18
-992 0 -1058 1 -1083 18 -15 9 -35 29 -44 44 -17 26 -18 107 -21 1383 -2 745
0 1379 3 1408 8 64 43 109 95 122 19 4 501 7 1070 7 971 -2 1038 -3 1063 -20z"/>
<path d="M2975 2937 c-17 -5 -45 -28 -65 -55 -19 -25 -45 -56 -57 -69 -13 -13
-23 -26 -23 -28 0 -2 -13 -19 -30 -37 -16 -18 -30 -36 -30 -40 0 -4 -13 -20
-28 -35 -16 -16 -41 -46 -58 -68 -16 -22 -32 -42 -35 -45 -4 -3 -37 -43 -74
-90 -37 -47 -71 -86 -76 -88 -5 -2 -9 -10 -9 -18 0 -8 -4 -14 -8 -14 -5 0 -22
-19 -39 -42 -36 -49 -80 -104 -105 -130 -10 -10 -18 -22 -18 -28 0 -5 -3 -10
-7 -10 -5 0 -34 -34 -67 -75 -65 -84 -54 -84 -118 -4 -51 65 -83 103 -100 121
-10 10 -18 22 -18 27 0 5 -4 11 -8 13 -4 2 -38 41 -76 87 -102 126 -102 126
-147 126 -43 0 -62 -16 -149 -125 -19 -24 -43 -52 -53 -62 -77 -80 -77 -183 0
-267 40 -42 62 -69 109 -131 51 -66 73 -94 109 -134 11 -12 46 -57 79 -99 32
-42 63 -77 67 -77 5 0 9 -4 9 -10 0 -9 9 -21 54 -73 10 -12 30 -38 44 -57 15
-19 37 -45 49 -57 13 -12 23 -26 23 -30 0 -4 15 -13 33 -18 46 -15 92 3 124
48 14 20 30 37 35 37 4 0 8 5 8 10 0 6 8 19 18 29 32 37 42 50 42 61 0 5 4 10
9 10 6 0 31 28 58 63 26 34 52 67 59 72 6 6 24 28 40 50 16 22 34 45 40 50 6
6 26 30 45 55 18 25 38 50 44 56 5 6 35 42 65 79 30 38 63 77 73 87 9 10 17
21 17 24 0 3 6 11 13 18 15 16 92 112 178 221 35 44 66 82 70 85 4 3 37 43 74
90 37 47 72 88 77 91 5 3 12 33 15 66 5 59 -7 100 -39 135 -7 7 -31 37 -53 66
-21 28 -43 52 -47 52 -4 0 -8 6 -8 13 0 16 -46 58 -80 73 -16 7 -36 7 -55 1z"/>
</g>
</svg>
